# Blender 5.0.1
# www.blender.org
o default
v 0.500000 -0.500000 -0.500000
v 0.500000 -0.500000 0.500000
v -0.500000 -0.500000 -0.500000
v -0.500000 -0.500000 0.500000
v 0.500000 0.500000 -0.500000
v 0.500000 0.500000 0.500000
v -0.500000 0.500000 -0.500000
v -0.500000 0.500000 0.500000
vn -0.0000 1.0000 -0.0000
vn -0.0000 -0.0000 -1.0000
vn 1.0000 -0.0000 -0.0000
vn -0.0000 -1.0000 -0.0000
vn -1.0000 -0.0000 -0.0000
vn -0.0000 -0.0000 1.0000
vt 0.000000 1.000000
vt 0.000000 0.000000
vt 1.000000 0.000000
vt 1.000000 1.000000
vt -0.000000 0.000000
s 0
f 7/1/1 8/2/1 6/3/1 5/4/1
f 3/3/2 7/4/2 5/1/2 1/2/2
f 1/3/3 5/4/3 6/1/3 2/2/3
f 3/5/4 1/3/4 2/4/4 4/1/4
f 4/3/5 8/4/5 7/1/5 3/2/5
f 2/3/6 6/4/6 8/1/6 4/2/6
o collision
v 0.500000 -0.500000 -0.500000
v 0.500000 -0.500000 0.500000
v -0.500000 -0.500000 -0.500000
v -0.500000 -0.500000 0.500000
v 0.500000 0.500000 -0.500000
v 0.500000 0.500000 0.500000
v -0.500000 0.500000 -0.500000
v -0.500000 0.500000 0.500000
vn -0.0000 1.0000 -0.0000
vn -0.0000 -0.0000 -1.0000
vn 1.0000 -0.0000 -0.0000
vn -0.0000 -1.0000 -0.0000
vn -1.0000 -0.0000 -0.0000
vn -0.0000 -0.0000 1.0000
vt 0.000000 1.000000
vt 0.000000 0.000000
vt 1.000000 0.000000
vt 1.000000 1.000000
vt -0.000000 0.000000
s 0
f 15/6/7 16/7/7 14/8/7 13/9/7
f 11/8/8 15/9/8 13/6/8 9/7/8
f 9/8/9 13/9/9 14/6/9 10/7/9
f 11/10/10 9/8/10 10/9/10 12/6/10
f 12/8/11 16/9/11 15/6/11 11/7/11
f 10/8/12 14/9/12 16/6/12 12/7/12
